<svg xmlns="http://www.w3.org/2000/svg" viewBox="0 0 100 100">
  <rect width="100" height="100" rx="20" fill="#8B6F47"/>
  <!-- Pinsel-Griff -->
  <rect x="42" y="65" width="16" height="25" rx="2" fill="#5A4A3A"/>
  <!-- Pinsel-Zwinge -->
  <rect x="40" y="60" width="20" height="8" rx="1" fill="#7A6A5A"/>
  <!-- Pinsel-Borsten -->
  <path d="M 35 60 Q 30 45 28 35 Q 28 25 32 20 L 38 25 L 42 60 Z" fill="#F5F1E8" opacity="0.9"/>
  <path d="M 42 60 Q 40 40 40 30 Q 40 20 42 15 L 48 20 L 50 60 Z" fill="#F5F1E8"/>
  <path d="M 50 60 Q 52 40 54 30 Q 56 20 58 15 L 62 20 L 58 60 Z" fill="#F5F1E8"/>
  <path d="M 58 60 Q 62 45 65 35 Q 68 25 68 20 L 62 25 L 58 60 Z" fill="#F5F1E8" opacity="0.9"/>
  <!-- Farbklecks -->
  <ellipse cx="70" cy="30" rx="8" ry="6" fill="#C17B5C" opacity="0.8"/>
  <ellipse cx="75" cy="28" rx="5" ry="4" fill="#D4A574" opacity="0.7"/>
</svg>
